<svg id="svg" version="1.1" xmlns="http://www.w3.org/2000/svg" xmlns:xlink="http://www.w3.org/1999/xlink" width="400" height="400" viewBox="0, 0, 400,400"><g id="svgg"><path id="path0" d="M191.200 28.890 C 186.767 30.044,183.089 31.241,181.505 32.047 C 181.123 32.241,180.438 32.400,179.982 32.400 C 179.526 32.400,179.264 32.580,179.400 32.800 C 179.536 33.020,179.277 33.200,178.824 33.200 C 178.371 33.200,178.000 33.380,178.000 33.600 C 178.000 33.820,177.539 34.000,176.976 34.000 C 176.396 34.000,176.060 34.173,176.200 34.400 C 176.336 34.620,176.077 34.800,175.624 34.800 C 175.171 34.800,174.800 34.968,174.800 35.173 C 174.800 35.378,174.441 35.660,174.002 35.799 C 173.564 35.938,172.979 36.274,172.702 36.545 C 172.015 37.219,168.514 39.600,168.210 39.600 C 168.074 39.600,167.510 40.053,166.956 40.608 C 166.402 41.162,165.752 41.494,165.512 41.346 C 165.273 41.198,165.161 41.239,165.264 41.438 C 165.487 41.869,163.753 43.619,163.426 43.293 C 163.302 43.168,163.200 43.367,163.200 43.733 C 163.200 44.100,163.043 44.400,162.850 44.400 C 162.407 44.400,156.000 50.685,156.000 51.120 C 156.000 51.298,155.387 52.113,154.638 52.930 C 153.889 53.748,152.854 54.981,152.338 55.669 C 151.822 56.358,150.995 57.353,150.500 57.879 C 150.005 58.406,149.600 58.984,149.600 59.164 C 149.600 59.344,149.125 59.965,148.545 60.545 C 147.965 61.125,147.617 61.600,147.770 61.600 C 147.924 61.600,147.468 62.410,146.757 63.400 C 146.046 64.390,145.304 65.200,145.109 65.200 C 144.913 65.200,144.855 65.365,144.980 65.568 C 145.105 65.770,144.936 66.207,144.604 66.539 C 144.272 66.871,144.000 67.336,144.000 67.571 C 144.000 67.807,143.801 68.000,143.557 68.000 C 143.314 68.000,143.212 68.255,143.332 68.567 C 143.452 68.879,143.279 69.237,142.949 69.364 C 142.619 69.491,142.461 69.776,142.598 69.997 C 142.735 70.219,142.657 70.400,142.424 70.400 C 142.191 70.400,142.000 70.670,142.000 71.000 C 142.000 71.330,141.820 71.600,141.600 71.600 C 141.380 71.600,141.200 71.834,141.200 72.120 C 141.200 72.856,140.259 74.793,139.900 74.797 C 139.735 74.799,139.600 75.070,139.600 75.400 C 139.600 75.730,139.420 76.000,139.200 76.000 C 138.980 76.000,138.800 76.265,138.800 76.588 C 138.800 76.911,138.440 77.817,138.000 78.600 C 137.560 79.383,137.200 80.289,137.200 80.612 C 137.200 80.935,137.020 81.200,136.800 81.200 C 136.580 81.200,136.400 81.470,136.400 81.800 C 136.400 82.130,136.220 82.400,136.000 82.400 C 135.780 82.400,135.600 82.735,135.600 83.144 C 135.600 83.767,134.861 85.476,132.797 89.626 C 132.626 89.970,132.655 90.555,132.863 90.926 C 133.359 91.813,195.883 91.985,196.210 91.100 C 196.311 90.825,196.441 76.631,196.497 59.558 L 196.600 28.515 194.600 28.520 C 193.500 28.523,191.970 28.689,191.200 28.890 M203.900 28.633 C 203.545 28.989,203.489 90.045,203.843 90.967 C 204.212 91.930,267.096 91.936,267.466 90.973 C 267.598 90.628,267.502 90.142,267.253 89.893 C 267.004 89.644,266.800 89.116,266.800 88.720 C 266.800 88.324,266.620 88.000,266.400 88.000 C 266.180 88.000,266.000 87.676,266.000 87.280 C 266.000 86.386,265.106 84.407,264.700 84.403 C 264.535 84.401,264.400 83.950,264.400 83.400 C 264.400 82.850,264.220 82.400,264.000 82.400 C 263.780 82.400,263.600 82.040,263.600 81.600 C 263.600 81.160,263.420 80.800,263.200 80.800 C 262.980 80.800,262.800 80.440,262.800 80.000 C 262.800 79.560,262.609 79.200,262.376 79.200 C 262.143 79.200,262.055 79.035,262.180 78.832 C 262.305 78.630,262.136 78.193,261.804 77.861 C 261.472 77.529,261.200 77.064,261.200 76.829 C 261.200 76.593,261.020 76.400,260.800 76.400 C 260.580 76.400,260.400 76.040,260.400 75.600 C 260.400 75.160,260.220 74.800,260.000 74.800 C 259.780 74.800,259.600 74.440,259.600 74.000 C 259.600 73.560,259.420 73.200,259.200 73.200 C 258.980 73.200,258.800 72.868,258.800 72.461 C 258.800 72.055,258.444 71.312,258.008 70.810 C 257.573 70.308,257.313 69.740,257.432 69.548 C 257.550 69.357,257.485 69.200,257.288 69.200 C 256.990 69.200,255.955 67.509,255.819 66.800 C 255.775 66.571,253.463 63.349,252.586 62.295 C 252.264 61.908,252.000 61.413,252.000 61.195 C 252.000 60.978,251.859 60.800,251.686 60.800 C 251.514 60.800,251.057 60.267,250.672 59.615 C 250.287 58.963,249.753 58.193,249.486 57.905 C 249.219 57.616,248.377 56.575,247.615 55.590 C 246.853 54.606,246.088 53.740,245.915 53.667 C 245.742 53.593,245.600 53.308,245.600 53.032 C 245.600 52.359,234.466 41.200,233.795 41.200 C 233.664 41.200,232.981 40.661,232.278 40.002 C 231.575 39.343,230.775 38.803,230.500 38.802 C 230.225 38.801,230.000 38.650,230.000 38.468 C 230.000 38.285,229.505 37.881,228.900 37.570 C 228.295 37.260,227.509 36.689,227.153 36.303 C 226.797 35.916,226.212 35.600,225.853 35.600 C 225.494 35.600,225.200 35.420,225.200 35.200 C 225.200 34.980,224.855 34.800,224.433 34.800 C 224.012 34.800,223.607 34.665,223.533 34.500 C 223.341 34.068,220.028 32.400,219.362 32.400 C 219.053 32.400,218.800 32.220,218.800 32.000 C 218.800 31.780,218.470 31.600,218.067 31.600 C 217.663 31.600,217.208 31.475,217.055 31.322 C 216.902 31.169,216.475 30.999,216.106 30.945 C 215.736 30.891,215.067 30.677,214.617 30.469 C 212.148 29.328,204.512 28.019,203.900 28.633 M164.781 32.020 C 164.461 32.222,163.615 32.391,162.900 32.394 C 162.185 32.397,161.600 32.580,161.600 32.800 C 161.600 33.020,160.880 33.200,160.000 33.200 C 159.120 33.200,158.400 33.348,158.400 33.529 C 158.400 33.710,157.219 34.104,155.777 34.405 C 154.334 34.706,153.063 35.098,152.953 35.276 C 152.843 35.454,152.324 35.600,151.800 35.600 C 151.276 35.600,150.736 35.780,150.600 36.000 C 150.464 36.220,149.924 36.400,149.400 36.400 C 148.876 36.400,148.336 36.580,148.200 36.800 C 148.064 37.020,147.513 37.200,146.976 37.200 C 146.439 37.200,146.000 37.380,146.000 37.600 C 146.000 37.820,145.586 38.000,145.080 38.000 C 144.026 38.000,142.008 38.853,142.003 39.300 C 142.001 39.465,141.460 39.600,140.800 39.600 C 140.140 39.600,139.600 39.780,139.600 40.000 C 139.600 40.220,139.240 40.400,138.800 40.400 C 138.360 40.400,138.000 40.580,138.000 40.800 C 138.000 41.020,137.651 41.200,137.224 41.200 C 136.797 41.200,136.350 41.357,136.232 41.548 C 136.024 41.885,133.784 42.475,133.415 42.290 C 133.316 42.241,132.984 42.542,132.678 42.961 C 132.372 43.380,131.933 43.606,131.703 43.463 C 131.472 43.321,131.176 43.485,131.045 43.828 C 130.913 44.170,130.657 44.359,130.475 44.246 C 130.292 44.134,129.567 44.392,128.862 44.821 C 128.157 45.249,127.392 45.600,127.162 45.600 C 126.931 45.600,126.471 45.872,126.139 46.204 C 125.807 46.536,125.370 46.705,125.168 46.580 C 124.965 46.455,124.800 46.500,124.800 46.681 C 124.800 46.861,123.585 47.635,122.100 48.401 C 120.615 49.167,119.310 49.886,119.200 49.998 C 119.090 50.110,118.505 50.456,117.900 50.768 C 117.295 51.080,116.797 51.530,116.794 51.768 C 116.791 52.005,116.630 51.951,116.438 51.647 C 116.163 51.213,116.029 51.277,115.817 51.947 C 115.668 52.416,115.366 52.800,115.145 52.800 C 114.658 52.800,111.054 55.223,110.867 55.677 C 110.793 55.855,110.428 56.000,110.055 56.000 C 109.682 56.000,109.117 56.360,108.800 56.800 C 108.483 57.240,108.027 57.600,107.787 57.600 C 107.547 57.600,106.976 57.949,106.518 58.376 C 106.060 58.803,105.576 59.043,105.443 58.909 C 105.309 58.776,105.200 58.982,105.200 59.367 C 105.200 59.752,104.982 59.994,104.715 59.905 C 104.448 59.816,103.863 60.122,103.415 60.585 C 102.967 61.048,102.147 61.712,101.594 62.061 C 101.041 62.410,99.619 63.523,98.434 64.534 C 97.249 65.545,96.099 66.261,95.878 66.125 C 95.657 65.988,95.599 66.075,95.749 66.317 C 95.903 66.567,95.373 67.197,94.517 67.779 C 93.691 68.340,93.174 68.800,93.368 68.800 C 93.563 68.800,93.290 69.174,92.761 69.631 C 92.233 70.088,90.958 71.258,89.929 72.231 C 88.900 73.204,87.865 74.000,87.629 74.000 C 87.393 74.000,87.200 74.165,87.200 74.366 C 87.200 74.770,85.026 77.006,83.569 78.100 C 83.057 78.485,82.778 78.800,82.951 78.800 C 83.123 78.800,82.305 79.804,81.132 81.032 C 79.959 82.260,78.854 83.524,78.675 83.841 C 78.497 84.157,78.170 84.305,77.949 84.168 C 77.721 84.028,77.602 84.242,77.673 84.660 C 77.752 85.120,77.592 85.356,77.251 85.284 C 76.902 85.210,76.788 85.391,76.938 85.784 C 77.092 86.184,76.946 86.400,76.521 86.400 C 76.161 86.400,75.961 86.495,76.077 86.611 C 76.193 86.727,75.590 87.582,74.738 88.511 C 71.921 91.580,70.396 91.386,98.405 91.513 C 124.152 91.630,125.200 91.594,125.200 90.592 C 125.200 90.267,125.380 90.000,125.600 90.000 C 125.820 90.000,126.000 89.640,126.000 89.200 C 126.000 88.760,126.180 88.400,126.400 88.400 C 126.620 88.400,126.800 87.950,126.800 87.400 C 126.800 86.850,126.980 86.400,127.200 86.400 C 127.420 86.400,127.600 86.051,127.600 85.624 C 127.600 85.197,127.780 84.736,128.000 84.600 C 128.220 84.464,128.400 83.993,128.400 83.553 C 128.400 83.113,128.580 82.864,128.800 83.000 C 129.026 83.140,129.200 82.812,129.200 82.247 C 129.200 81.697,129.380 81.136,129.600 81.000 C 129.820 80.864,130.000 80.403,130.000 79.976 C 130.000 79.549,130.135 79.199,130.300 79.197 C 130.659 79.193,131.600 77.256,131.600 76.520 C 131.600 76.234,131.735 75.999,131.900 75.999 C 132.065 75.998,132.650 75.008,133.200 73.800 C 133.750 72.592,134.335 71.602,134.500 71.601 C 134.665 71.601,134.800 71.330,134.800 71.000 C 134.800 70.670,134.944 70.400,135.120 70.400 C 135.295 70.400,135.661 69.787,135.932 69.038 C 136.203 68.289,136.868 67.022,137.411 66.222 C 137.953 65.423,138.809 64.011,139.311 63.084 C 140.688 60.547,142.477 57.817,142.860 57.667 C 143.047 57.593,143.200 57.370,143.200 57.171 C 143.200 56.779,144.078 55.611,145.491 54.121 C 145.981 53.604,146.363 53.077,146.340 52.948 C 146.276 52.589,150.635 47.480,154.100 43.853 C 155.805 42.068,157.200 40.471,157.200 40.304 C 157.200 40.137,157.374 40.000,157.586 40.000 C 157.799 40.000,158.499 39.505,159.143 38.900 C 159.786 38.295,160.827 37.410,161.456 36.934 C 162.085 36.458,162.988 35.738,163.463 35.334 C 163.937 34.930,164.702 34.335,165.163 34.012 C 166.501 33.071,166.135 31.164,164.781 32.020 M234.300 31.911 C 233.134 32.157,234.534 34.800,235.829 34.800 C 236.143 34.800,236.400 34.941,236.400 35.114 C 236.400 35.286,236.925 35.737,237.566 36.116 C 238.207 36.495,239.800 37.884,241.107 39.202 C 242.413 40.521,243.616 41.600,243.781 41.600 C 244.139 41.600,245.976 43.536,247.955 46.000 C 248.750 46.990,249.516 47.890,249.658 48.000 C 249.800 48.110,251.199 49.820,252.767 51.800 C 254.336 53.780,255.839 55.673,256.109 56.006 C 256.379 56.339,256.855 57.104,257.168 57.706 C 257.480 58.308,257.885 58.800,258.068 58.800 C 258.250 58.800,258.400 59.070,258.400 59.400 C 258.400 59.730,258.760 60.360,259.200 60.800 C 259.640 61.240,259.982 61.706,259.959 61.836 C 259.936 61.965,260.251 62.470,260.659 62.958 C 261.341 63.775,262.183 65.245,264.670 69.969 C 265.182 70.943,265.871 72.037,266.201 72.401 C 266.530 72.765,266.800 73.364,266.800 73.731 C 266.800 74.099,266.980 74.400,267.200 74.400 C 267.420 74.400,267.600 74.760,267.600 75.200 C 267.600 75.640,267.780 76.000,268.000 76.000 C 268.220 76.000,268.400 76.360,268.400 76.800 C 268.400 77.240,268.580 77.600,268.800 77.600 C 269.020 77.600,269.200 77.960,269.200 78.400 C 269.200 78.840,269.380 79.200,269.600 79.200 C 269.820 79.200,270.000 79.453,270.000 79.762 C 270.000 80.071,270.339 81.016,270.753 81.862 C 271.167 82.708,271.906 84.300,272.396 85.400 C 272.887 86.500,273.448 87.713,273.644 88.095 C 273.840 88.477,274.000 89.062,274.000 89.395 C 274.000 89.728,274.180 90.000,274.400 90.000 C 274.620 90.000,274.800 90.251,274.800 90.557 C 274.800 91.560,275.807 91.600,301.209 91.600 C 325.101 91.600,329.252 91.417,326.468 90.489 C 326.208 90.403,326.082 90.191,326.188 90.019 C 326.294 89.847,326.025 89.385,325.591 88.991 C 325.156 88.598,324.800 88.034,324.800 87.738 C 324.800 87.442,324.575 87.191,324.300 87.181 C 324.025 87.170,323.130 86.225,322.310 85.081 C 321.491 83.936,319.925 82.076,318.830 80.947 C 317.736 79.817,316.966 78.753,317.120 78.583 C 317.274 78.412,317.184 78.396,316.920 78.547 C 316.639 78.709,316.244 78.446,315.966 77.911 C 315.402 76.827,314.570 75.992,313.090 75.022 C 312.490 74.629,312.000 74.059,312.000 73.754 C 312.000 73.449,311.806 73.200,311.569 73.200 C 311.331 73.200,310.446 72.480,309.600 71.600 C 308.754 70.720,307.967 70.000,307.849 70.000 C 307.731 70.000,306.664 69.055,305.478 67.900 C 304.291 66.745,302.976 65.530,302.555 65.200 C 300.125 63.296,299.275 62.458,299.522 62.211 C 299.675 62.058,299.620 61.970,299.400 62.014 C 298.547 62.186,298.108 61.947,296.475 60.425 C 295.546 59.558,294.429 58.736,293.993 58.598 C 293.557 58.459,293.200 58.178,293.200 57.973 C 293.200 57.768,292.949 57.600,292.642 57.600 C 292.336 57.600,291.507 57.060,290.800 56.400 C 290.093 55.740,289.347 55.200,289.141 55.200 C 288.935 55.200,288.411 54.869,287.977 54.464 C 287.542 54.059,286.695 53.474,286.093 53.165 C 285.492 52.855,284.910 52.511,284.800 52.401 C 284.690 52.290,284.195 51.975,283.700 51.700 C 283.205 51.425,282.395 50.975,281.900 50.700 C 281.405 50.425,280.910 50.097,280.800 49.970 C 280.690 49.844,279.790 49.304,278.800 48.770 C 277.810 48.237,276.910 47.700,276.800 47.577 C 276.690 47.455,275.970 47.112,275.200 46.816 C 273.316 46.092,269.467 43.953,269.122 43.438 C 268.969 43.210,268.713 43.153,268.554 43.312 C 268.395 43.472,267.934 43.302,267.530 42.937 C 267.126 42.571,266.689 42.378,266.559 42.507 C 266.430 42.637,265.705 42.396,264.950 41.972 C 264.194 41.547,263.301 41.200,262.964 41.200 C 262.628 41.200,262.464 41.020,262.600 40.800 C 262.744 40.567,262.337 40.400,261.624 40.400 C 260.951 40.400,260.400 40.253,260.400 40.072 C 260.400 39.892,259.500 39.500,258.400 39.200 C 257.300 38.900,256.400 38.508,256.400 38.328 C 256.400 38.147,255.950 38.000,255.400 38.000 C 254.850 38.000,254.400 37.820,254.400 37.600 C 254.400 37.380,253.871 37.200,253.224 37.200 C 252.577 37.200,251.936 37.020,251.800 36.800 C 251.664 36.580,251.124 36.400,250.600 36.400 C 250.076 36.400,249.536 36.220,249.400 36.000 C 249.264 35.780,248.713 35.600,248.176 35.600 C 247.639 35.600,247.200 35.420,247.200 35.200 C 247.200 34.980,246.671 34.800,246.024 34.800 C 245.377 34.800,244.736 34.620,244.600 34.400 C 244.464 34.180,243.733 34.000,242.976 34.000 C 242.219 34.000,241.600 33.858,241.600 33.685 C 241.600 33.512,241.027 33.327,240.327 33.273 C 239.626 33.220,238.861 33.037,238.627 32.867 C 238.392 32.697,237.570 32.505,236.800 32.439 C 236.030 32.373,235.310 32.195,235.200 32.042 C 235.090 31.889,234.685 31.830,234.300 31.911 M67.500 98.557 C 67.115 98.849,66.800 99.213,66.800 99.366 C 66.800 99.519,66.080 100.704,65.200 102.000 C 64.320 103.296,63.600 104.546,63.600 104.778 C 63.600 105.010,63.420 105.200,63.200 105.200 C 62.980 105.200,62.800 105.389,62.800 105.619 C 62.800 105.850,62.133 107.065,61.318 108.319 C 60.503 109.574,59.883 110.764,59.939 110.963 C 59.996 111.163,59.808 111.472,59.521 111.649 C 59.235 111.826,58.996 112.112,58.990 112.285 C 58.974 112.827,56.646 117.393,56.315 117.533 C 56.142 117.607,56.000 118.012,56.000 118.433 C 56.000 118.855,55.820 119.200,55.600 119.200 C 55.380 119.200,55.200 119.434,55.200 119.720 C 55.200 120.456,54.259 122.393,53.900 122.397 C 53.735 122.399,53.600 122.850,53.600 123.400 C 53.600 123.950,53.420 124.400,53.200 124.400 C 52.980 124.400,52.800 124.861,52.800 125.424 C 52.800 126.004,52.627 126.340,52.400 126.200 C 52.173 126.060,52.000 126.396,52.000 126.976 C 52.000 127.539,51.820 128.000,51.600 128.000 C 51.380 128.000,51.200 128.551,51.200 129.224 C 51.200 129.937,51.033 130.344,50.800 130.200 C 50.572 130.059,50.400 130.404,50.400 131.000 C 50.400 131.576,50.257 131.959,50.083 131.851 C 49.909 131.744,49.723 132.228,49.670 132.928 C 49.618 133.627,49.400 134.260,49.187 134.333 C 48.974 134.407,48.800 134.891,48.800 135.410 C 48.800 135.928,48.620 136.464,48.400 136.600 C 48.180 136.736,48.000 137.257,48.000 137.757 C 48.000 138.257,47.865 138.802,47.700 138.967 C 47.535 139.132,47.392 139.387,47.382 139.533 C 47.295 140.815,46.175 143.908,45.868 143.718 C 45.652 143.585,45.590 143.660,45.728 143.883 C 45.866 144.107,45.554 145.973,45.034 148.029 C 44.515 150.085,44.179 152.000,44.287 152.284 C 44.447 152.700,50.893 152.800,77.443 152.800 L 110.400 152.800 110.400 150.200 C 110.400 148.733,110.574 147.600,110.800 147.600 C 111.026 147.600,111.200 146.467,111.200 145.000 C 111.200 143.533,111.374 142.400,111.600 142.400 C 111.822 142.400,112.000 141.333,112.000 140.000 C 112.000 138.667,112.178 137.600,112.400 137.600 C 112.620 137.600,112.800 136.711,112.800 135.624 C 112.800 134.537,112.980 133.536,113.200 133.400 C 113.420 133.264,113.600 132.274,113.600 131.200 C 113.600 130.126,113.780 129.136,114.000 129.000 C 114.220 128.864,114.400 128.054,114.400 127.200 C 114.400 126.346,114.560 125.548,114.756 125.427 C 114.951 125.306,115.212 124.621,115.334 123.904 C 115.456 123.187,115.756 121.700,116.000 120.600 C 116.244 119.500,116.544 118.013,116.666 117.296 C 116.788 116.579,117.049 115.894,117.244 115.773 C 117.440 115.652,117.600 115.034,117.600 114.400 C 117.600 113.766,117.780 113.136,118.000 113.000 C 118.220 112.864,118.400 112.371,118.400 111.905 C 118.400 110.870,119.270 108.292,119.732 107.955 C 119.917 107.821,120.053 107.596,120.034 107.455 C 119.893 106.402,120.056 105.188,120.317 105.349 C 120.491 105.456,120.663 105.155,120.699 104.679 C 120.735 104.203,120.932 103.451,121.138 103.007 C 121.809 101.558,122.443 98.793,122.195 98.392 C 121.788 97.734,68.372 97.895,67.500 98.557 M129.238 98.900 C 129.050 99.395,128.859 99.980,128.814 100.200 C 128.769 100.420,128.536 100.836,128.297 101.124 C 128.058 101.412,127.813 102.115,127.752 102.687 C 127.691 103.259,127.479 103.834,127.280 103.964 C 126.951 104.179,126.611 105.284,126.222 107.400 C 126.142 107.840,125.881 108.701,125.642 109.314 C 125.404 109.927,125.236 110.557,125.268 110.714 C 125.301 110.871,125.234 111.270,125.120 111.600 C 124.307 113.955,124.000 115.198,124.000 116.128 C 124.000 116.718,123.820 117.200,123.600 117.200 C 123.380 117.200,123.200 117.830,123.200 118.600 C 123.200 119.370,123.020 120.000,122.800 120.000 C 122.580 120.000,122.400 120.720,122.400 121.600 C 122.400 122.480,122.220 123.200,122.000 123.200 C 121.780 123.200,121.600 124.010,121.600 125.000 C 121.600 125.990,121.420 126.800,121.200 126.800 C 120.980 126.800,120.800 127.621,120.800 128.624 C 120.800 129.737,120.644 130.351,120.400 130.200 C 120.154 130.048,120.000 130.721,120.000 131.953 C 120.000 133.053,119.820 134.064,119.600 134.200 C 119.380 134.336,119.200 135.236,119.200 136.200 C 119.200 137.164,119.020 138.064,118.800 138.200 C 118.580 138.336,118.400 139.517,118.400 140.824 C 118.400 142.131,118.250 143.200,118.066 143.200 C 117.882 143.200,117.691 144.312,117.642 145.670 C 117.593 147.029,117.373 148.476,117.153 148.887 C 116.934 149.298,116.809 150.301,116.877 151.117 L 117.000 152.600 156.700 152.702 L 196.400 152.804 196.400 125.402 L 196.400 98.000 162.990 98.000 L 129.580 98.000 129.238 98.900 M203.784 98.500 C 203.679 98.775,203.639 111.060,203.696 125.800 L 203.800 152.600 243.536 152.702 L 283.271 152.804 283.047 150.502 C 282.504 144.927,282.340 143.753,282.000 143.000 C 281.801 142.560,281.543 141.300,281.426 140.200 C 280.886 135.123,280.701 134.000,280.400 134.000 C 280.222 134.000,279.977 133.145,279.854 132.100 C 279.408 128.301,279.108 126.791,278.758 126.574 C 278.561 126.452,278.400 125.553,278.400 124.576 C 278.400 123.599,278.220 122.800,278.000 122.800 C 277.780 122.800,277.600 122.181,277.600 121.424 C 277.600 120.667,277.420 119.936,277.200 119.800 C 276.980 119.664,276.800 118.944,276.800 118.200 C 276.800 117.456,276.620 116.736,276.400 116.600 C 276.180 116.464,276.000 115.823,276.000 115.176 C 276.000 114.529,275.839 114.000,275.642 114.000 C 275.445 114.000,275.192 113.325,275.079 112.500 C 274.646 109.320,274.484 108.699,274.016 108.410 C 273.749 108.245,273.587 107.770,273.656 107.355 C 273.724 106.940,273.673 106.420,273.543 106.200 C 273.412 105.980,273.089 105.080,272.825 104.200 C 272.560 103.320,272.185 102.240,271.990 101.800 C 271.795 101.360,271.367 100.325,271.038 99.500 L 270.441 98.000 237.208 98.000 C 210.990 98.000,203.935 98.106,203.784 98.500 M277.849 98.616 C 277.719 98.955,277.773 99.540,277.968 99.916 C 278.162 100.292,278.551 101.410,278.831 102.400 C 279.110 103.390,279.488 104.371,279.670 104.580 C 279.851 104.789,280.000 105.376,280.000 105.885 C 280.000 106.394,280.158 107.123,280.351 107.505 C 280.935 108.661,281.600 111.004,281.600 111.905 C 281.600 112.371,281.780 112.864,282.000 113.000 C 282.220 113.136,282.400 113.766,282.400 114.400 C 282.400 115.034,282.580 115.664,282.800 115.800 C 283.020 115.936,283.200 116.656,283.200 117.400 C 283.200 118.144,283.380 118.864,283.600 119.000 C 283.820 119.136,284.000 119.867,284.000 120.624 C 284.000 121.381,284.161 122.000,284.358 122.000 C 284.555 122.000,284.816 122.675,284.938 123.500 C 285.060 124.325,285.359 125.990,285.603 127.200 C 285.847 128.410,286.144 130.210,286.262 131.200 C 286.381 132.190,286.640 133.171,286.839 133.380 C 287.037 133.589,287.200 134.534,287.200 135.480 C 287.200 136.426,287.380 137.200,287.600 137.200 C 287.821 137.200,288.000 138.240,288.000 139.520 C 288.000 140.796,288.165 142.011,288.366 142.220 C 288.568 142.429,288.832 143.680,288.953 145.000 C 289.075 146.320,289.315 148.570,289.487 150.000 L 289.800 152.600 322.800 152.600 L 355.800 152.600 355.936 151.640 C 356.010 151.112,355.889 150.302,355.666 149.840 C 355.443 149.378,355.171 148.550,355.062 148.000 C 354.523 145.274,353.399 141.385,353.118 141.267 C 352.943 141.193,352.797 140.743,352.794 140.267 C 352.787 139.317,351.911 136.578,351.474 136.141 C 351.323 135.990,351.200 135.447,351.200 134.933 C 351.200 134.420,351.020 134.000,350.800 134.000 C 350.580 134.000,350.400 133.638,350.400 133.195 C 350.400 132.417,350.258 132.031,349.262 130.105 C 349.008 129.613,348.800 128.938,348.800 128.605 C 348.800 128.272,348.620 128.000,348.400 128.000 C 348.180 128.000,348.000 127.561,348.000 127.024 C 348.000 126.487,347.820 125.936,347.600 125.800 C 347.380 125.664,347.200 125.203,347.200 124.776 C 347.200 124.349,347.064 124.000,346.898 124.000 C 346.731 124.000,346.371 123.460,346.098 122.800 C 345.824 122.140,345.376 121.060,345.102 120.400 C 344.829 119.740,344.469 119.200,344.302 119.200 C 344.136 119.200,344.000 118.851,344.000 118.424 C 344.000 117.997,343.820 117.536,343.600 117.400 C 343.380 117.264,343.200 116.803,343.200 116.376 C 343.200 115.949,343.020 115.600,342.800 115.600 C 342.580 115.600,342.400 115.345,342.400 115.033 C 342.400 114.722,342.265 114.407,342.100 114.333 C 341.566 114.096,339.405 109.304,339.546 108.670 C 339.587 108.489,339.449 108.446,339.241 108.575 C 339.033 108.703,338.407 107.846,337.850 106.669 C 337.293 105.492,336.559 104.298,336.219 104.016 C 335.878 103.733,335.600 103.334,335.600 103.129 C 335.600 102.924,334.873 101.686,333.985 100.378 L 332.370 98.000 305.228 98.000 C 281.161 98.000,278.059 98.070,277.849 98.616 M42.800 160.200 C 42.800 160.530,42.620 160.800,42.400 160.800 C 42.178 160.800,42.000 161.867,42.000 163.200 C 42.000 164.533,41.822 165.600,41.600 165.600 C 41.365 165.600,41.200 166.992,41.200 168.976 C 41.200 170.833,41.020 172.464,40.800 172.600 C 40.545 172.758,40.400 178.263,40.400 187.800 C 40.400 197.337,40.545 202.842,40.800 203.000 C 41.020 203.136,41.200 204.666,41.200 206.400 C 41.200 208.134,41.380 209.664,41.600 209.800 C 41.820 209.936,42.000 211.027,42.000 212.224 L 42.000 214.400 75.438 214.400 L 108.877 214.400 108.669 208.700 C 108.174 195.104,108.540 161.707,109.191 161.051 C 109.382 160.859,109.442 160.454,109.326 160.151 C 108.993 159.283,42.800 159.332,42.800 160.200 M115.843 161.700 C 114.403 174.606,114.382 206.487,115.810 213.102 L 116.091 214.404 156.546 214.302 L 197.000 214.200 196.957 189.400 C 196.921 168.552,196.827 163.276,196.435 159.900 C 196.416 159.735,178.327 159.600,156.239 159.600 L 116.077 159.600 115.843 161.700 M203.600 187.000 L 203.600 214.400 243.810 214.400 L 284.020 214.400 284.366 213.489 C 284.557 212.988,284.741 210.248,284.775 207.401 C 284.810 204.553,284.988 202.128,285.172 202.012 C 285.540 201.778,285.450 179.067,285.046 170.200 C 284.781 164.391,284.154 160.413,283.423 159.906 C 283.191 159.744,265.135 159.609,243.300 159.606 L 203.600 159.600 203.600 187.000 M291.119 166.100 C 291.219 169.675,291.450 172.657,291.633 172.727 C 292.131 172.919,292.107 203.087,291.608 203.395 C 291.363 203.546,291.200 205.799,291.200 209.024 L 291.200 214.400 324.803 214.400 L 358.406 214.400 358.418 212.700 C 358.443 209.044,358.884 204.195,359.210 203.994 C 359.399 203.877,359.587 200.861,359.629 197.291 C 359.672 193.721,359.850 190.800,360.026 190.800 C 360.202 190.800,360.259 189.765,360.152 188.500 C 360.044 187.235,359.874 183.320,359.773 179.800 C 359.672 176.280,359.424 173.040,359.221 172.600 C 358.889 171.881,358.554 168.427,358.300 163.100 C 358.250 162.055,358.084 161.200,357.931 161.200 C 357.779 161.200,357.540 160.840,357.400 160.400 C 357.149 159.608,356.795 159.600,324.041 159.600 L 290.937 159.600 291.119 166.100 M43.372 222.045 C 43.221 222.289,43.290 222.608,43.524 222.753 C 43.759 222.898,44.041 223.463,44.150 224.009 C 44.950 228.000,45.067 228.799,44.879 228.987 C 44.762 229.104,44.856 229.200,45.088 229.200 C 45.320 229.200,45.605 229.695,45.722 230.300 C 45.839 230.905,46.146 232.120,46.404 233.000 C 46.663 233.880,46.968 235.187,47.081 235.904 C 47.195 236.621,47.449 237.306,47.644 237.427 C 47.840 237.548,48.000 237.999,48.000 238.429 C 48.000 238.859,48.159 239.523,48.353 239.905 C 48.548 240.287,48.929 241.140,49.200 241.800 C 49.471 242.460,49.852 243.313,50.047 243.695 C 50.241 244.077,50.400 244.741,50.400 245.171 C 50.400 245.601,50.580 246.064,50.800 246.200 C 51.020 246.336,51.200 246.797,51.200 247.224 C 51.200 247.651,51.380 248.000,51.600 248.000 C 51.820 248.000,52.000 248.355,52.000 248.788 C 52.000 249.221,52.360 250.217,52.800 251.000 C 53.240 251.783,53.600 252.689,53.600 253.012 C 53.600 253.335,53.780 253.600,54.000 253.600 C 54.220 253.600,54.400 253.872,54.400 254.205 C 54.400 254.538,54.559 255.123,54.753 255.505 C 54.948 255.887,55.352 256.740,55.653 257.400 C 55.953 258.060,56.297 258.690,56.418 258.800 C 56.681 259.040,58.826 263.443,58.897 263.888 C 59.171 265.613,59.129 265.611,89.364 265.595 L 117.990 265.579 118.258 264.511 C 118.427 263.839,118.354 263.385,118.063 263.288 C 117.808 263.203,117.600 262.428,117.600 261.567 C 117.600 260.705,117.440 260.000,117.244 260.000 C 116.910 260.000,116.773 259.462,116.153 255.700 C 116.017 254.875,115.756 254.013,115.574 253.785 C 115.392 253.557,115.189 252.522,115.122 251.486 C 115.055 250.449,114.885 249.600,114.744 249.600 C 114.485 249.600,114.148 248.021,113.741 244.900 C 113.619 243.965,113.358 243.200,113.160 243.200 C 112.962 243.200,112.800 242.131,112.800 240.824 C 112.800 239.517,112.620 238.336,112.400 238.200 C 112.180 238.064,112.000 237.074,112.000 236.000 C 112.000 234.926,111.820 233.936,111.600 233.800 C 111.380 233.664,111.200 232.584,111.200 231.400 C 111.200 230.216,111.020 229.136,110.800 229.000 C 110.580 228.864,110.400 227.428,110.400 225.809 C 110.400 224.190,110.291 222.581,110.157 222.233 C 109.850 221.431,43.866 221.245,43.372 222.045 M116.800 224.574 C 116.800 226.213,116.980 227.664,117.200 227.800 C 117.420 227.936,117.600 229.081,117.600 230.344 C 117.600 231.607,117.770 232.811,117.977 233.020 C 118.185 233.229,118.397 234.355,118.450 235.521 C 118.502 236.688,118.692 237.733,118.872 237.845 C 119.053 237.956,119.200 238.926,119.200 240.000 C 119.200 241.074,119.380 242.064,119.600 242.200 C 119.820 242.336,120.000 243.146,120.000 244.000 C 120.000 244.854,120.180 245.664,120.400 245.800 C 120.620 245.936,120.800 246.746,120.800 247.600 C 120.800 248.454,120.980 249.264,121.200 249.400 C 121.420 249.536,121.600 250.346,121.600 251.200 C 121.600 252.054,121.780 252.864,122.000 253.000 C 122.220 253.136,122.400 253.957,122.400 254.824 C 122.400 255.691,122.560 256.400,122.756 256.400 C 122.952 256.400,123.222 257.030,123.356 257.800 C 123.490 258.570,123.710 259.830,123.844 260.600 C 123.978 261.370,124.248 262.000,124.444 262.000 C 124.640 262.000,124.800 262.624,124.800 263.386 C 124.800 264.347,125.037 264.899,125.574 265.186 C 126.495 265.679,195.120 265.765,195.893 265.274 C 196.274 265.033,196.391 260.034,196.407 243.381 L 196.427 221.800 156.614 221.698 L 116.800 221.596 116.800 224.574 M203.600 243.355 C 203.600 262.828,203.666 265.140,204.233 265.357 C 205.056 265.673,273.120 265.664,274.300 265.348 C 275.008 265.158,275.200 264.819,275.200 263.753 C 275.200 263.009,275.380 262.400,275.600 262.400 C 275.820 262.400,276.000 261.781,276.000 261.024 C 276.000 260.267,276.180 259.536,276.400 259.400 C 276.620 259.264,276.800 258.533,276.800 257.776 C 276.800 257.019,276.980 256.400,277.200 256.400 C 277.420 256.400,277.600 255.680,277.600 254.800 C 277.600 253.920,277.780 253.200,278.000 253.200 C 278.220 253.200,278.400 252.491,278.400 251.624 C 278.400 250.757,278.580 249.936,278.800 249.800 C 279.020 249.664,279.200 248.854,279.200 248.000 C 279.200 247.146,279.380 246.336,279.600 246.200 C 279.820 246.064,280.000 245.164,280.000 244.200 C 280.000 243.236,280.180 242.336,280.400 242.200 C 280.620 242.064,280.800 240.973,280.800 239.776 C 280.800 238.579,280.980 237.600,281.200 237.600 C 281.420 237.600,281.600 236.711,281.600 235.624 C 281.600 234.537,281.780 233.536,282.000 233.400 C 282.220 233.264,282.400 232.008,282.400 230.610 C 282.400 229.211,282.568 228.007,282.773 227.933 C 282.978 227.860,283.188 226.450,283.240 224.800 L 283.334 221.800 243.467 221.698 L 203.600 221.596 203.600 243.355 M290.400 222.224 C 290.400 222.567,290.220 222.736,290.000 222.600 C 289.748 222.444,289.600 223.388,289.600 225.153 C 289.600 226.693,289.420 228.064,289.200 228.200 C 288.980 228.336,288.800 229.697,288.800 231.224 C 288.800 232.808,288.628 234.000,288.400 234.000 C 288.180 234.000,288.000 234.979,288.000 236.176 C 288.000 237.373,287.820 238.464,287.600 238.600 C 287.380 238.736,287.200 239.726,287.200 240.800 C 287.200 241.874,287.020 242.864,286.800 243.000 C 286.580 243.136,286.400 244.036,286.400 245.000 C 286.400 245.964,286.220 246.864,286.000 247.000 C 285.780 247.136,285.600 248.047,285.600 249.024 C 285.600 250.001,285.420 250.800,285.200 250.800 C 284.980 250.800,284.800 251.509,284.800 252.376 C 284.800 253.243,284.620 254.064,284.400 254.200 C 284.180 254.336,284.000 255.056,284.000 255.800 C 284.000 256.544,283.820 257.264,283.600 257.400 C 283.380 257.536,283.200 258.256,283.200 259.000 C 283.200 259.744,283.040 260.452,282.844 260.573 C 282.649 260.694,282.406 261.379,282.305 262.096 C 282.204 262.813,281.986 263.712,281.820 264.094 C 281.205 265.510,282.969 265.600,311.400 265.600 C 338.504 265.600,341.660 265.467,340.973 264.356 C 340.821 264.111,340.856 263.796,341.049 263.655 C 341.582 263.268,342.400 261.684,342.400 261.039 C 342.400 260.724,342.537 260.407,342.704 260.333 C 342.871 260.260,343.789 258.580,344.745 256.600 C 345.700 254.620,346.643 252.687,346.841 252.305 C 347.038 251.923,347.200 251.338,347.200 251.005 C 347.200 250.672,347.380 250.400,347.600 250.400 C 347.820 250.400,348.000 250.051,348.000 249.624 C 348.000 249.197,348.180 248.736,348.400 248.600 C 348.620 248.464,348.800 247.913,348.800 247.376 C 348.800 246.839,348.947 246.400,349.128 246.400 C 349.308 246.400,349.704 245.489,350.007 244.375 C 350.310 243.261,350.703 242.260,350.879 242.151 C 351.056 242.042,351.200 241.503,351.200 240.953 C 351.200 240.388,351.374 240.060,351.600 240.200 C 351.838 240.347,352.000 239.871,352.000 239.024 C 352.000 238.241,352.180 237.600,352.400 237.600 C 352.620 237.600,352.800 237.049,352.800 236.376 C 352.800 235.663,352.967 235.256,353.200 235.400 C 353.442 235.549,353.600 235.004,353.600 234.024 C 353.600 233.131,353.780 232.400,354.000 232.400 C 354.220 232.400,354.400 232.049,354.400 231.620 C 354.400 231.190,354.687 229.795,355.039 228.520 C 355.842 225.601,356.360 223.204,356.383 222.300 C 356.399 221.639,354.569 221.600,323.400 221.600 C 293.778 221.600,290.400 221.664,290.400 222.224 " stroke="none" fill="#7c7c7c" fill-rule="evenodd"></path><path id="path1" d="M166.110 32.400 C 166.143 32.840,166.312 33.200,166.485 33.200 C 166.658 33.200,166.800 32.840,166.800 32.400 C 166.800 31.960,166.631 31.600,166.425 31.600 C 166.219 31.600,166.077 31.960,166.110 32.400 M159.600 38.400 C 159.093 38.840,158.858 39.200,159.078 39.200 C 159.298 39.200,159.893 38.840,160.400 38.400 C 160.907 37.960,161.142 37.600,160.922 37.600 C 160.702 37.600,160.107 37.960,159.600 38.400 M151.700 46.223 C 151.111 46.863,151.062 47.200,151.557 47.200 C 151.898 47.200,152.537 45.996,152.309 45.783 C 152.249 45.727,151.975 45.925,151.700 46.223 M154.093 52.800 C 153.818 53.240,153.731 53.600,153.900 53.600 C 154.069 53.600,154.432 53.240,154.707 52.800 C 154.982 52.360,155.069 52.000,154.900 52.000 C 154.731 52.000,154.368 52.360,154.093 52.800 M97.029 65.029 C 96.605 65.338,96.336 65.669,96.430 65.763 C 96.524 65.857,96.948 65.681,97.371 65.371 C 97.795 65.062,98.064 64.731,97.970 64.637 C 97.876 64.543,97.452 64.719,97.029 65.029 M302.000 64.700 C 302.000 64.869,302.360 65.232,302.800 65.507 C 303.240 65.782,303.600 65.869,303.600 65.700 C 303.600 65.531,303.240 65.168,302.800 64.893 C 302.360 64.618,302.000 64.531,302.000 64.700 M91.700 69.798 C 90.957 70.642,91.094 70.873,92.000 70.307 C 92.440 70.032,92.800 69.671,92.800 69.504 C 92.800 69.027,92.249 69.175,91.700 69.798 M322.014 84.222 C 322.030 84.624,323.995 87.155,323.998 86.778 C 323.999 86.655,323.550 85.945,323.000 85.200 C 322.450 84.455,322.006 84.015,322.014 84.222 M196.920 164.400 C 196.920 165.610,196.995 166.105,197.087 165.500 C 197.178 164.895,197.178 163.905,197.087 163.300 C 196.995 162.695,196.920 163.190,196.920 164.400 M41.515 164.400 C 41.418 165.060,41.487 165.600,41.669 165.600 C 41.851 165.600,42.000 165.060,42.000 164.400 C 42.000 163.740,41.930 163.200,41.845 163.200 C 41.760 163.200,41.612 163.740,41.515 164.400 M114.673 174.553 C 114.523 174.945,114.411 175.566,114.425 175.933 C 114.442 176.375,114.581 176.274,114.837 175.634 C 115.049 175.103,115.161 174.482,115.085 174.254 C 115.009 174.027,114.824 174.161,114.673 174.553 M291.759 179.600 C 291.759 182.790,291.821 184.095,291.897 182.500 C 291.973 180.905,291.973 178.295,291.897 176.700 C 291.821 175.105,291.759 176.410,291.759 179.600 M359.606 185.100 C 359.624 185.977,360.388 186.559,360.394 185.700 C 360.397 185.205,360.220 184.800,360.000 184.800 C 359.780 184.800,359.603 184.935,359.606 185.100 M39.734 187.827 C 39.602 188.172,39.698 188.658,39.947 188.907 C 40.284 189.244,40.400 189.084,40.400 188.280 C 40.400 187.077,40.101 186.873,39.734 187.827 M291.599 197.281 C 291.489 200.516,291.540 203.022,291.712 202.850 C 291.883 202.677,291.973 200.031,291.910 196.968 L 291.797 191.400 291.599 197.281 M41.552 211.287 C 41.737 212.398,41.793 212.455,41.919 211.654 C 42.001 211.133,41.903 210.543,41.701 210.341 C 41.479 210.119,41.421 210.493,41.552 211.287 M196.400 265.000 C 196.117 265.341,195.976 265.709,196.086 265.819 C 196.196 265.929,196.517 265.741,196.800 265.400 C 197.083 265.059,197.224 264.691,197.114 264.581 C 197.004 264.471,196.683 264.659,196.400 265.000 M239.200 265.600 L 204.200 265.807 239.276 265.903 C 262.334 265.967,274.437 265.863,274.600 265.600 C 274.736 265.380,274.702 265.244,274.524 265.297 C 274.346 265.350,258.450 265.486,239.200 265.600 M311.400 265.600 L 283.000 265.808 311.476 265.904 C 330.133 265.967,340.038 265.862,340.200 265.600 C 340.336 265.380,340.302 265.243,340.124 265.296 C 339.946 265.349,327.020 265.486,311.400 265.600 M75.129 265.900 C 82.900 265.961,95.500 265.961,103.129 265.900 C 110.758 265.839,104.400 265.789,89.000 265.789 C 73.600 265.789,67.358 265.839,75.129 265.900 M143.730 265.900 C 153.372 265.960,169.032 265.960,178.530 265.900 C 188.029 265.840,180.140 265.791,161.000 265.791 C 141.860 265.791,134.089 265.840,143.730 265.900 M59.200 272.800 C 59.200 273.020,58.930 273.200,58.601 273.200 C 58.271 273.200,57.334 273.830,56.518 274.600 C 55.701 275.370,54.891 276.000,54.717 276.000 C 54.542 276.000,54.400 276.360,54.400 276.800 C 54.400 277.240,54.220 277.600,54.000 277.600 C 53.780 277.600,53.600 278.140,53.600 278.800 C 53.600 279.460,53.420 280.000,53.200 280.000 C 52.647 280.000,52.647 363.458,53.200 363.800 C 53.420 363.936,53.600 364.487,53.600 365.024 C 53.600 365.561,53.780 366.000,54.000 366.000 C 54.220 366.000,54.400 366.275,54.400 366.611 C 54.400 367.404,57.796 370.800,58.589 370.800 C 58.925 370.800,59.200 370.980,59.200 371.200 C 59.200 371.845,340.157 371.745,341.286 371.100 C 341.767 370.825,342.618 370.195,343.176 369.700 C 343.735 369.205,344.329 368.800,344.496 368.800 C 344.663 368.800,344.800 368.570,344.800 368.288 C 344.800 368.007,345.160 367.517,345.600 367.200 C 346.070 366.861,346.400 366.165,346.400 365.512 C 346.400 364.900,346.580 364.400,346.800 364.400 C 347.064 364.400,347.200 350.008,347.200 322.024 C 347.200 294.204,347.063 279.562,346.800 279.400 C 346.580 279.264,346.400 278.713,346.400 278.176 C 346.400 277.639,346.220 277.200,346.000 277.200 C 345.780 277.200,345.600 276.919,345.600 276.576 C 345.600 276.233,345.420 276.064,345.200 276.200 C 344.980 276.336,344.800 276.167,344.800 275.824 C 344.800 275.481,344.628 275.200,344.418 275.200 C 344.208 275.200,343.613 274.795,343.096 274.300 C 342.579 273.805,341.763 273.175,341.283 272.900 C 340.158 272.255,59.200 272.155,59.200 272.800 M81.219 295.700 C 81.779 296.195,82.678 297.230,83.215 298.000 C 83.753 298.770,85.454 300.693,86.996 302.274 C 90.568 305.936,93.549 309.200,93.323 309.200 C 93.226 309.200,94.019 310.055,95.084 311.100 C 96.150 312.145,97.464 313.630,98.003 314.400 C 98.543 315.170,100.383 317.187,102.092 318.883 C 103.801 320.578,105.200 322.057,105.200 322.168 C 105.200 322.367,107.758 325.164,111.100 328.621 C 112.035 329.588,112.800 330.524,112.800 330.701 C 112.800 331.326,117.927 336.400,118.559 336.400 C 119.138 336.400,119.200 334.509,119.200 316.800 C 119.200 304.000,119.339 297.200,119.600 297.200 C 119.820 297.200,120.000 296.951,120.000 296.646 C 120.000 295.030,123.277 294.305,124.453 295.661 C 125.615 297.001,125.615 346.599,124.453 347.939 C 123.240 349.338,120.544 348.758,119.538 346.882 C 119.267 346.376,117.640 344.629,115.923 343.000 C 114.205 341.370,112.800 339.872,112.800 339.672 C 112.800 339.471,111.855 338.296,110.700 337.060 C 109.545 335.824,107.700 333.788,106.600 332.534 C 105.500 331.280,102.935 328.552,100.900 326.470 C 98.865 324.389,97.200 322.528,97.200 322.336 C 97.200 322.144,95.895 320.661,94.300 319.041 C 92.705 317.420,90.956 315.488,90.414 314.747 C 88.636 312.317,83.815 307.609,83.100 307.605 C 82.443 307.600,82.400 308.781,82.400 326.840 L 82.400 346.080 81.040 347.440 C 79.428 349.052,78.319 349.155,76.982 347.818 L 76.000 346.836 76.000 321.804 L 76.000 296.771 76.900 295.810 C 78.066 294.565,79.881 294.519,81.219 295.700 M190.105 295.300 C 190.597 295.575,191.029 295.800,191.064 295.800 C 191.907 295.800,191.469 298.856,190.473 299.921 L 189.286 301.193 168.743 301.296 L 148.200 301.400 148.200 309.800 L 148.200 318.200 167.984 318.304 C 180.369 318.369,187.916 318.556,188.164 318.804 C 188.382 319.022,188.908 319.200,189.333 319.200 C 191.236 319.200,192.277 322.306,190.900 323.876 C 189.829 325.097,188.348 325.183,168.070 325.208 C 157.684 325.220,148.919 325.333,148.593 325.458 C 148.095 325.649,148.000 327.027,148.000 334.043 L 148.000 342.400 168.640 342.400 L 189.279 342.400 190.470 343.675 C 191.469 344.744,191.909 347.800,191.064 347.800 C 191.029 347.800,190.597 348.025,190.105 348.300 C 189.419 348.683,183.982 348.800,166.787 348.800 L 144.364 348.800 143.382 347.818 C 142.842 347.278,142.400 346.558,142.400 346.218 C 142.400 345.878,142.220 345.600,142.000 345.600 C 141.738 345.600,141.600 337.400,141.600 321.800 C 141.600 306.200,141.738 298.000,142.000 298.000 C 142.220 298.000,142.400 297.724,142.400 297.386 C 142.400 297.048,142.805 296.339,143.300 295.810 L 144.200 294.849 166.705 294.824 C 184.004 294.806,189.418 294.916,190.105 295.300 M213.418 295.782 L 214.400 296.764 214.400 316.582 C 214.400 333.423,214.485 336.400,214.967 336.400 C 215.839 336.400,216.800 335.955,216.800 335.551 C 216.800 335.352,218.285 333.684,220.100 331.845 C 223.722 328.175,226.000 325.679,226.000 325.380 C 226.000 324.813,232.098 319.200,232.714 319.200 C 233.713 319.200,235.592 320.112,235.600 320.600 C 235.603 320.820,237.090 322.483,238.903 324.295 C 242.663 328.052,243.262 328.709,245.200 331.199 C 247.286 333.880,249.898 336.400,250.589 336.400 C 251.128 336.400,251.200 334.167,251.200 317.395 C 251.200 302.934,251.320 298.175,251.700 297.495 C 253.284 294.660,254.925 294.089,256.618 295.782 L 257.600 296.764 257.600 321.800 L 257.600 346.836 256.618 347.818 C 255.047 349.390,254.246 349.083,250.783 345.583 C 249.032 343.813,247.600 342.491,247.600 342.645 C 247.600 342.799,247.150 342.401,246.600 341.762 C 246.051 341.123,245.601 340.461,245.600 340.291 C 245.600 340.122,244.655 339.005,243.500 337.811 C 242.345 336.617,240.561 334.686,239.536 333.520 C 233.084 326.185,233.308 326.301,230.711 328.934 C 228.413 331.264,226.400 333.531,226.400 333.789 C 226.400 334.084,225.731 334.829,221.293 339.479 C 219.152 341.722,216.320 344.728,215.000 346.158 C 212.741 348.607,210.400 349.748,210.400 348.400 C 210.400 348.180,210.063 348.000,209.650 348.000 C 208.449 348.000,208.400 346.945,208.400 321.031 C 208.400 298.328,208.451 296.499,209.100 295.687 C 210.080 294.461,212.142 294.506,213.418 295.782 M316.000 295.200 C 316.000 295.420,316.450 295.600,317.000 295.600 C 317.550 295.600,318.000 295.780,318.000 296.000 C 318.000 296.220,318.270 296.400,318.600 296.400 C 318.930 296.400,319.200 296.536,319.200 296.702 C 319.200 296.869,319.740 297.244,320.400 297.536 C 321.060 297.828,321.600 298.288,321.600 298.558 C 321.600 298.828,321.960 299.436,322.400 299.908 C 322.840 300.380,323.200 301.044,323.200 301.383 C 323.200 301.722,323.380 302.000,323.600 302.000 C 323.820 302.000,324.000 302.818,324.000 303.818 C 324.000 306.058,322.591 307.739,320.757 307.686 C 319.177 307.641,317.600 305.794,317.600 303.987 C 317.600 303.534,317.158 302.722,316.618 302.182 L 315.636 301.200 299.200 301.200 L 282.764 301.200 281.782 302.182 C 280.498 303.466,280.233 316.310,281.462 317.669 C 282.081 318.353,283.110 318.400,297.438 318.400 C 307.217 318.400,312.842 318.545,313.000 318.800 C 313.136 319.020,313.940 319.200,314.786 319.200 C 317.207 319.200,322.400 322.465,322.400 323.987 C 322.400 324.214,322.580 324.400,322.800 324.400 C 323.020 324.400,323.200 324.760,323.200 325.200 C 323.200 325.640,323.380 326.000,323.600 326.000 C 323.853 326.000,324.000 328.933,324.000 334.000 C 324.000 339.067,323.853 342.000,323.600 342.000 C 323.380 342.000,323.200 342.371,323.200 342.824 C 323.200 343.277,323.020 343.536,322.800 343.400 C 322.580 343.264,322.400 343.433,322.400 343.776 C 322.400 344.119,322.220 344.400,322.000 344.400 C 321.780 344.400,321.600 344.593,321.600 344.829 C 321.600 345.390,320.579 346.400,320.012 346.400 C 319.767 346.400,319.180 346.760,318.708 347.200 C 318.236 347.640,317.433 348.000,316.925 348.000 C 316.416 348.000,316.000 348.180,316.000 348.400 C 316.000 348.660,310.133 348.800,299.200 348.800 C 288.267 348.800,282.400 348.660,282.400 348.400 C 282.400 348.180,281.984 348.000,281.475 348.000 C 280.967 348.000,280.164 347.640,279.692 347.200 C 279.220 346.760,278.622 346.400,278.363 346.400 C 277.790 346.400,276.001 344.381,276.000 343.733 C 276.000 343.477,275.802 343.201,275.561 343.120 C 274.311 342.704,274.709 336.400,275.985 336.400 C 276.396 336.400,276.802 336.195,276.885 335.946 C 277.135 335.194,280.000 337.057,280.000 337.971 C 280.000 338.207,280.180 338.400,280.400 338.400 C 280.620 338.400,280.800 338.908,280.800 339.528 C 280.800 342.389,280.871 342.400,299.200 342.400 C 319.692 342.400,317.600 343.389,317.600 333.699 C 317.600 324.190,320.895 325.373,293.629 325.094 C 284.831 325.003,281.817 324.850,281.696 324.487 C 281.606 324.219,281.188 324.000,280.767 324.000 C 280.345 324.000,280.000 323.820,280.000 323.600 C 280.000 323.380,279.724 323.200,279.387 323.200 C 278.608 323.200,276.000 320.617,276.000 319.847 C 276.000 319.528,275.775 319.192,275.500 319.100 C 275.119 318.973,275.000 316.751,275.000 309.800 C 275.000 302.849,275.119 300.627,275.500 300.500 C 275.775 300.408,276.000 300.123,276.000 299.867 C 276.001 299.165,277.812 297.200,278.458 297.200 C 278.769 297.200,279.283 296.840,279.600 296.400 C 279.939 295.930,280.635 295.600,281.288 295.600 C 281.900 295.600,282.400 295.420,282.400 295.200 C 282.400 294.940,288.267 294.800,299.200 294.800 C 310.133 294.800,316.000 294.940,316.000 295.200 " stroke="none" fill="#4b4b4b" fill-rule="evenodd"></path><path id="path2" d="M196.133 28.677 C 196.290 28.940,196.413 43.037,196.405 60.004 C 196.395 80.715,196.523 90.771,196.795 90.603 C 197.594 90.109,197.327 29.401,196.523 28.749 C 196.123 28.425,195.964 28.395,196.133 28.677 M196.406 125.100 C 196.402 142.771,196.537 152.000,196.800 152.000 C 197.339 152.000,197.339 99.634,196.800 98.800 C 196.548 98.409,196.410 107.585,196.406 125.100 M196.516 161.239 C 196.470 161.878,196.605 162.400,196.816 162.400 C 197.267 162.400,197.340 160.533,196.900 160.263 C 196.735 160.161,196.562 160.600,196.516 161.239 M196.934 175.600 C 196.934 177.250,197.005 177.925,197.091 177.100 C 197.178 176.275,197.178 174.925,197.091 174.100 C 197.005 173.275,196.934 173.950,196.934 175.600 M285.040 174.666 C 285.408 176.199,285.600 176.344,285.600 175.090 C 285.600 174.517,285.413 173.932,285.184 173.790 C 284.911 173.621,284.862 173.923,285.040 174.666 M196.920 188.400 C 196.920 189.610,196.995 190.105,197.087 189.500 C 197.178 188.895,197.178 187.905,197.087 187.300 C 196.995 186.695,196.920 187.190,196.920 188.400 M108.093 188.400 C 108.093 189.170,108.175 189.485,108.276 189.100 C 108.376 188.715,108.376 188.085,108.276 187.700 C 108.175 187.315,108.093 187.630,108.093 188.400 M196.928 198.800 C 196.928 200.230,197.001 200.815,197.089 200.100 C 197.178 199.385,197.178 198.215,197.089 197.500 C 197.001 196.785,196.928 197.370,196.928 198.800 M196.901 211.400 C 196.905 212.280,196.987 212.593,197.083 212.095 C 197.179 211.598,197.175 210.878,197.075 210.495 C 196.975 210.113,196.896 210.520,196.901 211.400 M196.400 243.624 C 196.400 257.671,196.535 264.764,196.800 264.600 C 197.058 264.440,197.200 256.929,197.200 243.376 C 197.200 229.659,197.062 222.400,196.800 222.400 C 196.538 222.400,196.400 229.741,196.400 243.624 " stroke="none" fill="#6c8060" fill-rule="evenodd"></path><path id="path3" d="M196.133 28.677 C 196.290 28.940,196.413 43.037,196.405 60.004 C 196.395 80.715,196.523 90.771,196.795 90.603 C 197.594 90.109,197.327 29.401,196.523 28.749 C 196.123 28.425,195.964 28.395,196.133 28.677 M196.406 125.100 C 196.402 142.771,196.537 152.000,196.800 152.000 C 197.339 152.000,197.339 99.634,196.800 98.800 C 196.548 98.409,196.410 107.585,196.406 125.100 M196.516 161.239 C 196.470 161.878,196.605 162.400,196.816 162.400 C 197.267 162.400,197.340 160.533,196.900 160.263 C 196.735 160.161,196.562 160.600,196.516 161.239 M196.934 175.600 C 196.934 177.250,197.005 177.925,197.091 177.100 C 197.178 176.275,197.178 174.925,197.091 174.100 C 197.005 173.275,196.934 173.950,196.934 175.600 M285.040 174.666 C 285.408 176.199,285.600 176.344,285.600 175.090 C 285.600 174.517,285.413 173.932,285.184 173.790 C 284.911 173.621,284.862 173.923,285.040 174.666 M196.920 188.400 C 196.920 189.610,196.995 190.105,197.087 189.500 C 197.178 188.895,197.178 187.905,197.087 187.300 C 196.995 186.695,196.920 187.190,196.920 188.400 M108.093 188.400 C 108.093 189.170,108.175 189.485,108.276 189.100 C 108.376 188.715,108.376 188.085,108.276 187.700 C 108.175 187.315,108.093 187.630,108.093 188.400 M196.928 198.800 C 196.928 200.230,197.001 200.815,197.089 200.100 C 197.178 199.385,197.178 198.215,197.089 197.500 C 197.001 196.785,196.928 197.370,196.928 198.800 M196.901 211.400 C 196.905 212.280,196.987 212.593,197.083 212.095 C 197.179 211.598,197.175 210.878,197.075 210.495 C 196.975 210.113,196.896 210.520,196.901 211.400 M196.400 243.624 C 196.400 257.671,196.535 264.764,196.800 264.600 C 197.058 264.440,197.200 256.929,197.200 243.376 C 197.200 229.659,197.062 222.400,196.800 222.400 C 196.538 222.400,196.400 229.741,196.400 243.624 " stroke="none" fill="#6c8060" fill-rule="evenodd"></path><path id="path4" d="M196.133 28.677 C 196.290 28.940,196.413 43.037,196.405 60.004 C 196.395 80.715,196.523 90.771,196.795 90.603 C 197.594 90.109,197.327 29.401,196.523 28.749 C 196.123 28.425,195.964 28.395,196.133 28.677 M196.406 125.100 C 196.402 142.771,196.537 152.000,196.800 152.000 C 197.339 152.000,197.339 99.634,196.800 98.800 C 196.548 98.409,196.410 107.585,196.406 125.100 M196.516 161.239 C 196.470 161.878,196.605 162.400,196.816 162.400 C 197.267 162.400,197.340 160.533,196.900 160.263 C 196.735 160.161,196.562 160.600,196.516 161.239 M196.934 175.600 C 196.934 177.250,197.005 177.925,197.091 177.100 C 197.178 176.275,197.178 174.925,197.091 174.100 C 197.005 173.275,196.934 173.950,196.934 175.600 M285.040 174.666 C 285.408 176.199,285.600 176.344,285.600 175.090 C 285.600 174.517,285.413 173.932,285.184 173.790 C 284.911 173.621,284.862 173.923,285.040 174.666 M196.920 188.400 C 196.920 189.610,196.995 190.105,197.087 189.500 C 197.178 188.895,197.178 187.905,197.087 187.300 C 196.995 186.695,196.920 187.190,196.920 188.400 M108.093 188.400 C 108.093 189.170,108.175 189.485,108.276 189.100 C 108.376 188.715,108.376 188.085,108.276 187.700 C 108.175 187.315,108.093 187.630,108.093 188.400 M196.928 198.800 C 196.928 200.230,197.001 200.815,197.089 200.100 C 197.178 199.385,197.178 198.215,197.089 197.500 C 197.001 196.785,196.928 197.370,196.928 198.800 M196.901 211.400 C 196.905 212.280,196.987 212.593,197.083 212.095 C 197.179 211.598,197.175 210.878,197.075 210.495 C 196.975 210.113,196.896 210.520,196.901 211.400 M196.400 243.624 C 196.400 257.671,196.535 264.764,196.800 264.600 C 197.058 264.440,197.200 256.929,197.200 243.376 C 197.200 229.659,197.062 222.400,196.800 222.400 C 196.538 222.400,196.400 229.741,196.400 243.624 " stroke="none" fill="#6c8060" fill-rule="evenodd"></path></g></svg>